<svg width="43" height="42" viewBox="0 0 43 42" fill="none" xmlns="http://www.w3.org/2000/svg">
<path d="M21.5 0C10.7422 0 2 8.74219 2 19.5C2 21.7969 3.76953 23.6367 6 23.8984V24.4141L1.17187 29.2422C-0.382812 30.7969 -0.382812 33.3477 1.17187 34.9023L6 39.7305V40C5.99609 40.3594 6.18359 40.6953 6.49609 40.8789C6.80859 41.0586 7.19141 41.0586 7.50391 40.8789C7.81641 40.6953 8.00391 40.3594 8 40V21C8 20.4492 7.55078 20 7 20C6.44922 20 6 20.4492 6 21V21.9492C4.85156 21.7227 4 20.7227 4 19.5C4 9.82422 11.8242 2 21.5 2C31.1758 2 39 9.82422 39 19.5C39 20.7227 38.1484 21.7227 37 21.9492V21C37 20.4492 36.5508 20 36 20C35.4492 20 35 20.4492 35 21V40C34.9961 40.3594 35.1836 40.6953 35.4961 40.8789C35.8086 41.0586 36.1914 41.0586 36.5039 40.8789C36.8164 40.6953 37.0039 40.3594 37 40V39.7305L41.8281 34.9023C43.3828 33.3477 43.3828 30.7969 41.8281 29.2422L37 24.4141V23.8984C39.2305 23.6367 41 21.7969 41 19.5C41 8.74219 32.2578 0 21.5 0ZM13 9C10.2422 9 8 11.2422 8 14C8 16.7578 10.2422 19 13 19C13.1289 19 13.2461 18.9766 13.3711 18.9688C13.1562 19.7266 13 20.5703 13 21.5C13 23.168 13.3555 24.6836 14 25.8672C14.6445 27.0508 15.6758 28 17 28C18.2656 28 19.2734 27.1211 19.9141 26.0156C20.5469 24.9258 20.918 23.5234 20.9844 21.9766C21.1562 21.9922 21.3281 22 21.5 22C21.6719 22 21.8438 21.9922 22.0156 21.9766C22.082 23.5234 22.4531 24.9258 23.0859 26.0156C23.7266 27.1211 24.7344 28 26 28C27.3242 28 28.3555 27.0508 29 25.8672C29.6445 24.6836 30 23.168 30 21.5C30 20.5703 29.8438 19.7266 29.6289 18.9688C29.7539 18.9766 29.8711 19 30 19C32.7578 19 35 16.7578 35 14C35 11.2422 32.7578 9 30 9C27.375 9 25.2188 11.0352 25.0195 13.6094C23.9805 13.2227 22.7891 13 21.5 13C20.2109 13 19.0195 13.2227 17.9805 13.6094C17.7812 11.0352 15.625 9 13 9ZM13.5 11C14.8828 11 16 12.1172 16 13.5C16 14.8828 14.8828 16 13.5 16C12.1172 16 11 14.8828 11 13.5C11 12.1172 12.1172 11 13.5 11ZM30.5 11C31.8828 11 33 12.1172 33 13.5C33 14.8828 31.8828 16 30.5 16C29.1172 16 28 14.8828 28 13.5C28 12.1172 29.1172 11 30.5 11ZM21.5 15C24.332 15 26.3477 16.3789 26.9727 17.6445C27.4844 18.6836 28 19.9844 28 21.5C28 22.8711 27.6836 24.1016 27.2461 24.9102C26.8047 25.7188 26.332 26 26 26C25.6797 26 25.2461 25.75 24.8164 25.0117C24.3867 24.2734 24.0586 23.1367 24.0117 21.8477C24.0078 21.6953 23.9883 21.5547 23.957 21.4219C24.625 21.0469 25 20.5352 25 20C25 18.8945 23.4336 18 21.5 18C19.5664 18 18 18.8945 18 20C18 20.5273 18.3672 21.0352 19.0195 21.4102C19 21.5625 18.9883 21.7188 18.9883 21.875C18.9375 23.1523 18.6094 24.2773 18.1836 25.0117C17.7539 25.75 17.3203 26 17 26C16.668 26 16.1953 25.7188 15.7539 24.9102C15.3164 24.1016 15 22.8711 15 21.5C15 19.9844 15.5156 18.6836 16.0273 17.6445C16.6523 16.3789 18.668 15 21.5 15ZM6 27.2422V29.7305L4.36328 31.3633C3.97266 31.7539 3.97266 32.3867 4.36328 32.7773L6 34.4141V36.9023L2.58594 33.4844C1.79687 32.6953 1.79687 31.4453 2.58594 30.6562L6 27.2422ZM37 27.2422L40.4141 30.6562C41.2031 31.4453 41.2031 32.6953 40.4141 33.4844L37 36.9023V34.4141L38.6367 32.7773C39.0273 32.3867 39.0273 31.7539 38.6367 31.3633L37 29.7305V27.2422Z" fill="#fff"/>
</svg>
